<svg width="37" height="35" viewBox="0 0 37 35" fill="none" xmlns="http://www.w3.org/2000/svg">
<path d="M35.897 17.2197L20.4259 1.75662L19.3889 0.719608C19.1526 0.484885 18.8331 0.353149 18.5 0.353149C18.1669 0.353149 17.8474 0.484885 17.6111 0.719608L1.10303 17.2197C0.860917 17.4609 0.669572 17.7481 0.540288 18.0644C0.411004 18.3808 0.346402 18.7198 0.350294 19.0615C0.36631 20.4709 1.53945 21.596 2.94883 21.596H4.65049V34.6367H32.3495V21.596H34.0872C34.7719 21.596 35.4165 21.3277 35.901 20.8432C36.1395 20.6055 36.3285 20.3227 36.4571 20.0114C36.5856 19.7 36.6511 19.3663 36.6497 19.0295C36.6497 18.3488 36.3814 17.7042 35.897 17.2197ZM20.7422 31.7539H16.2578V23.5859H20.7422V31.7539ZM29.4667 18.7132V31.7539H23.3047V22.625C23.3047 21.7401 22.588 21.0234 21.7031 21.0234H15.2969C14.412 21.0234 13.6953 21.7401 13.6953 22.625V31.7539H7.5333V18.7132H3.68955L18.504 3.91072L19.4289 4.83562L33.3144 18.7132H29.4667Z" fill="black"/>
</svg>
