<svg width="38" height="38" viewBox="0 0 38 38" fill="none" xmlns="http://www.w3.org/2000/svg">
<path fill-rule="evenodd" clip-rule="evenodd" d="M25.6667 13.9999C25.6667 15.768 24.9643 17.4637 23.7141 18.714C22.4638 19.9642 20.7681 20.6666 19 20.6666C17.2319 20.6666 15.5362 19.9642 14.286 18.714C13.0357 17.4637 12.3333 15.768 12.3333 13.9999C12.3333 12.2318 13.0357 10.5361 14.286 9.28587C15.5362 8.03563 17.2319 7.33325 19 7.33325C20.7681 7.33325 22.4638 8.03563 23.7141 9.28587C24.9643 10.5361 25.6667 12.2318 25.6667 13.9999ZM22.3333 13.9999C22.3333 14.884 21.9822 15.7318 21.357 16.3569C20.7319 16.9821 19.8841 17.3333 19 17.3333C18.116 17.3333 17.2681 16.9821 16.643 16.3569C16.0179 15.7318 15.6667 14.884 15.6667 13.9999C15.6667 13.1159 16.0179 12.268 16.643 11.6429C17.2681 11.0178 18.116 10.6666 19 10.6666C19.8841 10.6666 20.7319 11.0178 21.357 11.6429C21.9822 12.268 22.3333 13.1159 22.3333 13.9999Z" fill="#042028"/>
<path fill-rule="evenodd" clip-rule="evenodd" d="M19 0.666626C8.87501 0.666626 0.666672 8.87496 0.666672 19C0.666672 29.125 8.87501 37.3333 19 37.3333C29.125 37.3333 37.3333 29.125 37.3333 19C37.3333 8.87496 29.125 0.666626 19 0.666626ZM4.00001 19C4.00001 22.4833 5.18834 25.69 7.18001 28.2366C8.57872 26.3998 10.3832 24.9112 12.4524 23.8871C14.5216 22.8631 16.7996 22.3313 19.1083 22.3333C21.3872 22.3311 23.6365 22.8492 25.6849 23.8479C27.7333 24.8467 29.5266 26.2998 30.9283 28.0966C32.3724 26.2026 33.3447 23.992 33.7648 21.6476C34.1849 19.3032 34.0407 16.8925 33.3442 14.6149C32.6476 12.3373 31.4187 10.2584 29.7591 8.55002C28.0996 6.84167 26.0571 5.55306 23.8006 4.79081C21.5442 4.02856 19.1387 3.81458 16.7831 4.16658C14.4275 4.51858 12.1897 5.42645 10.2546 6.81505C8.31958 8.20365 6.74302 10.0331 5.65539 12.152C4.56775 14.2708 4.00031 16.6182 4.00001 19ZM19 34C15.5566 34.0051 12.2171 32.8205 9.54667 30.6466C10.6216 29.1079 12.0522 27.8515 13.717 26.9844C15.3818 26.1174 17.2313 25.6653 19.1083 25.6666C20.9619 25.6651 22.7892 26.1059 24.4382 26.9523C26.0873 27.7988 27.5106 29.0264 28.59 30.5333C25.8988 32.7778 22.5043 34.0049 19 34Z" fill="#042028"/>
</svg>
