<svg width="32" height="32" viewBox="0 0 32 32" fill="none" xmlns="http://www.w3.org/2000/svg">
<path d="M13.6667 27C16.625 26.9994 19.498 26.0091 21.8283 24.1867L29.155 31.5134L31.5117 29.1567L24.185 21.83C26.0083 19.4995 26.9993 16.6258 27 13.6667C27 6.31504 21.0183 0.333374 13.6667 0.333374C6.315 0.333374 0.333334 6.31504 0.333334 13.6667C0.333334 21.0184 6.315 27 13.6667 27ZM13.6667 3.66671C19.1817 3.66671 23.6667 8.15171 23.6667 13.6667C23.6667 19.1817 19.1817 23.6667 13.6667 23.6667C8.15167 23.6667 3.66667 19.1817 3.66667 13.6667C3.66667 8.15171 8.15167 3.66671 13.6667 3.66671Z" fill="#042028"/>
</svg>
