<svg width="37" height="37" viewBox="0 0 37 37" fill="none" xmlns="http://www.w3.org/2000/svg">
<path d="M1 32.5L4.15 36M5.725 22L7.3 29M7.3 29L13.6 30.75M7.3 29L2.575 34.25M26.2 2.75L10.45 20.25L11.2375 24.625L15.175 25.5L30.925 8L32.5 1L26.2 2.75Z" stroke="#042028" stroke-width="2" stroke-linecap="round" stroke-linejoin="round"/>
<path d="M36 32.5L32.85 36M31.275 22L29.7 29M29.7 29L34.425 34.25M29.7 29L26.55 29.875L23.4 30.75M13.775 16.5556L6.075 8L4.5 1L10.8 2.75L18.5 11.3056M18.675 22L21.825 25.5L25.7625 24.625L26.55 20.25L23.4 16.75" stroke="#042028" stroke-width="2" stroke-linecap="round" stroke-linejoin="round"/>
</svg>
